<?xml version="1.0" standalone="no"?>
<!DOCTYPE svg PUBLIC "-//W3C//DTD SVG 20010904//EN"
 "http://www.w3.org/TR/2001/REC-SVG-20010904/DTD/svg10.dtd">
<svg version="1.0" xmlns="http://www.w3.org/2000/svg"
 width="16.000000pt" height="16.000000pt" viewBox="0 0 16.000000 16.000000"
 preserveAspectRatio="xMidYMid meet">
<metadata>
Created by potrace 1.11, written by Peter Selinger 2001-2013
</metadata>
<g transform="translate(0.000000,16.000000) scale(0.008000,-0.008000)"
fill="#000000" stroke="none">
<path d="M10 1000 l0 -990 990 0 990 0 0 990 0 990 -990 0 -990 0 0 -990z
m670 688 c0 -3 -29 -33 -65 -66 l-65 -59 0 -132 0 -131 -25 0 -25 0 0 115 c0
63 -3 115 -6 115 -4 0 -23 -9 -43 -20 -20 -11 -59 -28 -87 -39 -50 -19 -50
-19 -63 1 -7 11 -11 21 -9 23 2 1 32 13 67 26 77 27 191 101 245 157 33 35 41
39 57 29 11 -7 19 -15 19 -19z m776 -89 c14 -15 14 -21 4 -34 -16 -19 -22 -19
-46 3 -10 9 -36 30 -57 46 -36 27 -37 29 -21 47 16 18 18 17 60 -13 24 -17 51
-39 60 -49z m244 -6 c0 -18 -65 -114 -102 -150 -53 -51 -115 -85 -202 -108
-72 -20 -71 -20 -80 11 -6 18 0 22 47 33 120 26 222 98 267 187 25 50 30 55
51 43 10 -5 19 -12 19 -16z m-70 -908 l0 -25 -140 0 -140 0 0 25 0 25 140 0
140 0 0 -25z m-950 -10 c14 -17 -28 -138 -69 -199 -61 -88 -193 -173 -226
-146 -23 19 -18 30 23 46 95 40 170 120 206 222 l15 42 -154 0 -155 0 0 25 0
24 175 0 c128 -1 177 -4 185 -14z m995 -95 c4 -6 -1 -34 -11 -63 -21 -64 -108
-154 -178 -186 -59 -26 -58 -26 -73 -2 -11 18 -7 22 45 46 77 35 139 95 156
153 l7 22 -155 0 c-149 0 -156 1 -156 20 0 19 7 20 179 20 112 0 182 -4 186
-10z"/>
</g>
</svg>
